<svg xmlns="http://www.w3.org/2000/svg" fill="none" viewBox="0 0 24 24"><path fill="#66e1ff" d="M23 6.628L21 6.128L22 4.128L19.536 4.828C18.8963 4.23119 18.0958 3.83475 17.2334 3.68761C16.371 3.54047 15.4843 3.64908 14.6829 4.00002C13.8815 4.35095 13.2004 4.92887 12.7236 5.66244C12.2468 6.39601 11.9953 7.25312 12 8.128V9.128C8.461 9.858 5.366 7.928 2.5 4.628C2 7.29467 2.5 9.29467 4 10.628L1 10.128C1.405 12.197 2.362 13.828 5 14.128L2.5 15.128C3.5 17.128 5.066 17.438 7.5 17.628C5.60692 18.9806 3.32603 19.6824 1 19.628C13.755 25.297 21 16.964 21 9.628V8.3L23 6.628Z"></path><path fill="#c2f3ff" d="M19.536 4.832C18.8965 4.23543 18.0964 3.83906 17.2344 3.69179C16.3723 3.54452 15.486 3.65279 14.6847 4.00323C13.8835 4.35368 13.2023 4.93098 12.7252 5.66394C12.2482 6.3969 11.9961 7.25346 12 8.128V9.128C8.461 9.858 5.366 7.928 2.5 4.628C2 7.29467 2.5 9.29467 4 10.628L1 10.128C1.405 12.197 2.362 13.828 5 14.128L2.5 15.128C3.464 17.055 4.961 17.411 7.246 17.605L20.212 4.639L19.536 4.832Z"></path><path stroke="#191919" stroke-linecap="round" stroke-linejoin="round" d="M23 6.628L21 6.128L22 4.128L19.536 4.828C18.8963 4.23119 18.0958 3.83475 17.2334 3.68761C16.371 3.54047 15.4843 3.64908 14.6829 4.00002C13.8815 4.35095 13.2004 4.92887 12.7236 5.66244C12.2468 6.39601 11.9953 7.25312 12 8.128V9.128C8.461 9.858 5.366 7.928 2.5 4.628C2 7.29467 2.5 9.29467 4 10.628L1 10.128C1.405 12.197 2.362 13.828 5 14.128L2.5 15.128C3.5 17.128 5.066 17.438 7.5 17.628C5.60692 18.9806 3.32603 19.6824 1 19.628C13.755 25.297 21 16.964 21 9.628V8.3L23 6.628Z"></path></svg>