<svg xmlns="http://www.w3.org/2000/svg" fill="none" viewBox="0 0 24 24"><path fill="#ff808c" stroke="#191919" stroke-linecap="round" stroke-linejoin="round" d="M20.38 4.13L17.47 6.87C16.6721 6.01809 15.6861 5.36443 14.5907 4.96116C13.4954 4.55789 12.3209 4.41617 11.1611 4.54731C10.0012 4.67845 8.88806 5.07882 7.91039 5.71647C6.93271 6.35413 6.11758 7.21143 5.53 8.22L2.38 5.72C3.32926 4.2607 4.59798 3.03641 6.09016 2.13973C7.58235 1.24306 9.25892 0.697496 10.993 0.544316C12.7272 0.391135 14.4734 0.63435 16.0997 1.25556C17.7259 1.87677 19.1896 2.8597 20.38 4.13V4.13Z"></path><path fill="#ffef5e" stroke="#191919" stroke-linecap="round" stroke-linejoin="round" d="M5.56999 15.84L2.55999 18.55C1.25035 16.6747 0.533152 14.4497 0.501065 12.1626C0.468977 9.8755 1.12347 7.63131 2.37999 5.72L5.52999 8.22C4.8489 9.37569 4.49303 10.6941 4.50007 12.0355C4.50711 13.377 4.8768 14.6915 5.56999 15.84V15.84Z"></path><path fill="#78eb7b" stroke="#191919" stroke-linecap="round" stroke-linejoin="round" d="M19.14 21.03C17.9066 22.0021 16.4873 22.7115 14.9694 23.1145C13.4515 23.5175 11.8672 23.6055 10.314 23.3732C8.76085 23.1409 7.27166 22.5931 5.93814 21.7636C4.60461 20.9341 3.45497 19.8405 2.56 18.55L5.57 15.84C6.10639 16.7396 6.82526 17.5168 7.68028 18.1217C8.53531 18.7266 9.50755 19.1457 10.5344 19.352C11.5612 19.5583 12.6199 19.5472 13.6422 19.3195C14.6645 19.0919 15.6278 18.6526 16.47 18.03L19.14 21.03Z"></path><path fill="#66e1ff" stroke="#191919" stroke-linecap="round" stroke-linejoin="round" d="M23.5 10.5V12.6C23.415 14.2345 22.9821 15.832 22.2302 17.2858C21.4783 18.7395 20.4248 20.016 19.14 21.03L16.47 18.03C17.6805 17.1456 18.5941 15.9147 19.09 14.5H13.5V10.5H23.5Z"></path><path stroke="#191919" stroke-linecap="round" stroke-linejoin="round" d="M2.38 5.72L2.37 5.71"></path><path stroke="#191919" stroke-linecap="round" stroke-linejoin="round" d="M2.55999 18.55L2.54999 18.56"></path><path stroke="#191919" stroke-linecap="round" stroke-linejoin="round" d="M5.58001 15.83L5.57001 15.84"></path></svg>