<svg xmlns="http://www.w3.org/2000/svg" fill="none" viewBox="0 0 24 24"><path fill="#66e1ff" d="M17.768 7.5H13.5V5.6C13.481 5.45861 13.4934 5.31477 13.5363 5.1787C13.5792 5.04264 13.6515 4.91767 13.748 4.81268C13.8446 4.7077 13.9632 4.62526 14.0952 4.57122C14.2272 4.51718 14.3695 4.49286 14.512 4.5C14.93 4.5 17.5 4.51 17.5 4.51V0.5H13.171C9.244 0.5 8.5 3.474 8.5 5.355V7.5H5.5V11.5H8.5V23.5H13.5V11.5H17.351L17.768 7.5Z"></path><path fill="#c2f3ff" d="M14.631 7.5H13.5V5.6C13.481 5.45861 13.4934 5.31477 13.5363 5.1787C13.5792 5.04264 13.6515 4.91767 13.748 4.81268C13.8446 4.7077 13.9632 4.62526 14.0952 4.57122C14.2272 4.51718 14.3695 4.49286 14.512 4.5C14.93 4.5 17.5 4.51 17.5 4.51V0.5H13.171C9.244 0.5 8.5 3.474 8.5 5.355V7.5H5.5V11.5H8.5V13.631L14.631 7.5Z"></path><path stroke="#191919" stroke-linecap="round" stroke-linejoin="round" d="M17.768 7.5H13.5V5.6C13.481 5.45861 13.4934 5.31477 13.5363 5.1787C13.5792 5.04264 13.6515 4.91767 13.748 4.81268C13.8446 4.7077 13.9632 4.62526 14.0952 4.57122C14.2272 4.51718 14.3695 4.49286 14.512 4.5C14.93 4.5 17.5 4.51 17.5 4.51V0.5H13.171C9.244 0.5 8.5 3.474 8.5 5.355V7.5H5.5V11.5H8.5V23.5H13.5V11.5H17.351L17.768 7.5Z"></path></svg>